<mxfile host="app.diagrams.net" modified="2024-06-24T08:46:13.968Z" agent="Mozilla/5.0 (Macintosh; Intel Mac OS X 10_15_7) AppleWebKit/537.36 (KHTML, like Gecko) Chrome/126.0.0.0 Safari/537.36" etag="sDIGR_7Y5648HZcpviXJ" version="24.6.2" type="github">
  <diagram name="Page-1" id="ThLoNOyRRW4WWOTf0mqJ">
    <mxGraphModel dx="954" dy="556" grid="1" gridSize="10" guides="1" tooltips="1" connect="1" arrows="1" fold="1" page="1" pageScale="1" pageWidth="827" pageHeight="1169" math="0" shadow="0">
      <root>
        <mxCell id="0" />
        <mxCell id="1" parent="0" />
        <mxCell id="qQFFzPtyfGhHFNW3J9Dj-6" value="" style="rounded=1;whiteSpace=wrap;html=1;strokeColor=none;" vertex="1" parent="1">
          <mxGeometry x="150" y="145" width="560" height="310" as="geometry" />
        </mxCell>
        <mxCell id="qQFFzPtyfGhHFNW3J9Dj-2" value="" style="rounded=1;whiteSpace=wrap;html=1;fillColor=#F0F0ED;strokeColor=#23445d;" vertex="1" parent="1">
          <mxGeometry x="190" y="190" width="320" height="220" as="geometry" />
        </mxCell>
        <mxCell id="qQFFzPtyfGhHFNW3J9Dj-3" value="Scheduler" style="rounded=1;whiteSpace=wrap;html=1;fillStyle=auto;fillColor=#b1ddf0;strokeColor=#10739e;" vertex="1" parent="1">
          <mxGeometry x="220" y="225" width="120" height="150" as="geometry" />
        </mxCell>
        <mxCell id="qQFFzPtyfGhHFNW3J9Dj-4" value="Reconciler" style="rounded=1;whiteSpace=wrap;html=1;fillStyle=auto;fillColor=#b1ddf0;strokeColor=#10739e;" vertex="1" parent="1">
          <mxGeometry x="360" y="225" width="120" height="150" as="geometry" />
        </mxCell>
        <mxCell id="qQFFzPtyfGhHFNW3J9Dj-5" value="Renderer" style="rounded=1;whiteSpace=wrap;html=1;fillStyle=auto;fillColor=#b1ddf0;strokeColor=#10739e;" vertex="1" parent="1">
          <mxGeometry x="550" y="225" width="120" height="150" as="geometry" />
        </mxCell>
        <mxCell id="qQFFzPtyfGhHFNW3J9Dj-7" value="Render 阶段" style="text;strokeColor=none;align=center;fillColor=none;html=1;verticalAlign=middle;whiteSpace=wrap;rounded=0;fontSize=15;fontStyle=1" vertex="1" parent="1">
          <mxGeometry x="290" y="160" width="120" height="30" as="geometry" />
        </mxCell>
        <mxCell id="qQFFzPtyfGhHFNW3J9Dj-8" value="Commit 阶段" style="text;strokeColor=none;align=center;fillColor=none;html=1;verticalAlign=middle;whiteSpace=wrap;rounded=0;fontSize=15;fontStyle=1" vertex="1" parent="1">
          <mxGeometry x="550" y="160" width="120" height="30" as="geometry" />
        </mxCell>
      </root>
    </mxGraphModel>
  </diagram>
</mxfile>
